<?xml version="1.0" encoding="UTF-8"?>
<svg width="1440px" height="743px" viewBox="0 0 1440 743" version="1.1" xmlns="http://www.w3.org/2000/svg" xmlns:xlink="http://www.w3.org/1999/xlink">
    <!-- Generator: Sketch 47.1 (45422) - http://www.bohemiancoding.com/sketch -->
    <title>Group</title>
    <desc>Created with Sketch.</desc>
    <defs></defs>
    <g id="Screens" stroke="none" stroke-width="1" fill="none" fill-rule="evenodd">
        <g id="t3-/-6">
            <g id="Group">
                <path d="M1440,507.5 L1440,0 L1.13686838e-13,0 L2.46496924e-14,507.5 L1.51461294e-28,743 C136.211566,708.676524 281.505126,691.514786 435.88068,691.514786 C667.44401,691.514786 805.496005,717.394053 1046.35061,729.786253 C1206.92035,738.04772 1338.13682,730.716685 1440,707.793148 L1440,507.5 Z" id="Mask" fill="#F7F7F7"></path>
                <path d="M1335.94187,655 L1330.01166,665.752722 C1326.93935,664.836265 1327.15964,661.321858 1330.67253,655.2095" id="Path-12-Copy" fill="#CE7D9F" transform="translate(1331.901730, 660.376361) rotate(-180.000000) translate(-1331.901730, -660.376361) "></path>
                <path d="M1308.1091,660.971183 C1308.29077,656.990394 1309.06192,655 1310.42258,655 C1311.78323,655 1313.04735,657.382722 1314.21495,662.148167 C1329.51037,660.501146 1339.48765,660.882064 1344.1468,663.29092 C1351.13552,666.904206 1311.9974,667.118602 1306.34358,664.992215 C1306.50945,664.992215 1306.39492,664.504677 1306,663.529601 L1307.53928,663.374413 L1307.69034,662.462245 C1307.15552,662.302045 1306.79736,662.013485 1306.61585,661.596564 C1306.43434,661.179644 1306.93209,660.971183 1308.1091,660.971183 Z" id="Path-11" fill="#FAB5D2"></path>
                <path d="M1333.5128,664.178082 L1327.58259,674.930804 C1324.51028,674.014347 1324.73058,670.49994 1328.24347,664.387582" id="Path-12" fill="#CE7D9F"></path>
                <path d="M1087.13841,54 L1081.2082,64.7527222 C1078.13589,63.836265 1078.35618,60.3218575 1081.86907,54.2094998" id="Path-12-Copy" fill="#CE7D9F" transform="translate(1083.098270, 59.376361) scale(-1, 1) rotate(-180.000000) translate(-1083.098270, -59.376361) "></path>
                <path d="M1072.12962,59.9711835 C1072.31128,55.9903945 1073.08244,54 1074.44309,54 C1075.80375,54 1077.06787,56.3827222 1078.23547,61.1481667 C1093.53089,59.5011457 1103.50817,59.8820636 1108.16732,62.2909205 C1115.15604,65.9042057 1076.01791,66.1186022 1070.3641,63.9922151 C1070.52996,63.9922151 1070.41544,63.5046772 1070.02052,62.5296013 L1071.5598,62.3744125 L1071.71085,61.4622447 C1071.17604,61.3020449 1070.81788,61.0134847 1070.63637,60.5965642 C1070.45485,60.1796437 1070.95261,59.9711835 1072.12962,59.9711835 Z" id="Path-11" fill="#FAB5D2" transform="translate(1089.510259, 59.677258) scale(-1, 1) translate(-1089.510259, -59.677258) "></path>
                <path d="M1089.56747,63.1780822 L1083.63726,73.9308044 C1080.56496,73.0143472 1080.78525,69.4999397 1084.29814,63.387582" id="Path-12" fill="#CE7D9F" transform="translate(1085.527336, 68.554443) scale(-1, 1) translate(-1085.527336, -68.554443) "></path>
                <path d="M173.63315,330.588623 L167.702938,341.341345 C164.630632,340.424888 164.850924,336.910481 168.363814,330.798123" id="Path-12-Copy" fill="#CE7D9F" transform="translate(169.593012, 335.964984) rotate(-166.000000) translate(-169.593012, -335.964984) "></path>
                <path d="M146.063641,338.102069 C146.245305,334.12128 147.016463,332.130886 148.377115,332.130886 C149.737768,332.130886 151.001893,334.513608 152.16949,339.279052 C167.464908,337.632031 177.442191,338.012949 182.10134,340.421806 C189.090064,344.035091 149.951936,344.249488 144.29812,342.123101 C144.463986,342.123101 144.349459,341.635563 143.954539,340.660487 L145.493817,340.505298 L145.644874,339.59313 C145.110061,339.432931 144.751898,339.14437 144.570387,338.72745 C144.388875,338.310529 144.886627,338.102069 146.063641,338.102069 Z" id="Path-11" fill="#FAB5D2" transform="translate(163.444280, 337.808144) rotate(14.000000) translate(-163.444280, -337.808144) "></path>
                <path d="M173.496617,340.081721 L167.566405,350.834443 C164.494099,349.917986 164.714391,346.403579 168.227281,340.291221" id="Path-12" fill="#CE7D9F" transform="translate(169.456479, 345.458082) rotate(14.000000) translate(-169.456479, -345.458082) "></path>
            </g>
        </g>
    </g>
</svg>