<?xml version="1.0" encoding="UTF-8"?>
<svg width="137px" height="137px" viewBox="0 0 137 137" version="1.1" xmlns="http://www.w3.org/2000/svg" xmlns:xlink="http://www.w3.org/1999/xlink">
    <!-- Generator: sketchtool 47.1 (45422) - http://www.bohemiancoding.com/sketch -->
    <title>D35FE6BA-E355-484C-9A42-10F5E39063DF</title>
    <desc>Created with sketchtool.</desc>
    <defs>
        <rect id="path-1" x="29.3229837" y="26.8080826" width="60" height="60" rx="30"></rect>
        <filter x="-101.7%" y="-98.3%" width="303.3%" height="303.3%" filterUnits="objectBoundingBox" id="filter-2">
            <feOffset dx="0" dy="2" in="SourceAlpha" result="shadowOffsetOuter1"></feOffset>
            <feGaussianBlur stdDeviation="20" in="shadowOffsetOuter1" result="shadowBlurOuter1"></feGaussianBlur>
            <feColorMatrix values="0 0 0 0 0   0 0 0 0 0   0 0 0 0 0  0 0 0 0.2 0" type="matrix" in="shadowBlurOuter1"></feColorMatrix>
        </filter>
        <filter x="-76.7%" y="-73.3%" width="253.3%" height="253.3%" filterUnits="objectBoundingBox" id="filter-3">
            <feOffset dx="0" dy="2" in="SourceAlpha" result="shadowOffsetOuter1"></feOffset>
            <feGaussianBlur stdDeviation="15" in="shadowOffsetOuter1" result="shadowBlurOuter1"></feGaussianBlur>
            <feColorMatrix values="0 0 0 0 0   0 0 0 0 0   0 0 0 0 0  0 0 0 0.1 0" type="matrix" in="shadowBlurOuter1" result="shadowMatrixOuter1"></feColorMatrix>
            <feMerge>
                <feMergeNode in="shadowMatrixOuter1"></feMergeNode>
                <feMergeNode in="SourceGraphic"></feMergeNode>
            </feMerge>
        </filter>
        <circle id="path-4" cx="30" cy="30" r="30"></circle>
    </defs>
    <g id="Screens" stroke="none" stroke-width="1" fill="none" fill-rule="evenodd">
        <g id="A.5" transform="translate(-1248.000000, -887.000000)">
            <g id="Group-31" transform="translate(1257.500233, 896.859888)">
                <g id="Rectangle">
                    <use fill="black" fill-opacity="1" filter="url(#filter-2)" xlink:href="#path-1"></use>
                    <use fill="#FFFFFF" fill-rule="evenodd" xlink:href="#path-1"></use>
                </g>
                <g id="Group-15-Copy-6" transform="translate(29.000000, 26.000000)">
                    <g filter="url(#filter-3)" transform="translate(0.322984, 0.808083)">
                        <mask id="mask-5" fill="white">
                            <use xlink:href="#path-4"></use>
                        </mask>
                        <use id="Mask" fill="#FFFFFF" xlink:href="#path-4"></use>
                        <g id="Group-15" mask="url(#mask-5)">
                            <g transform="translate(-9.000000, -3.000000)">
                                <path d="M50.9255912,23.7920278 C36.5294926,21.9285308 25.9896046,26.8314064 19.3059273,38.5006544 C9.28041126,56.0045265 -4.03503253,100.302211 1.16454553,119.356487 C6.3641236,138.410763 9.50819014,138.190859 25.3161445,140.226306 C35.8547807,141.58327 46.0983886,138.67416 56.0469679,131.498974 C64.4290906,123.570164 69.1324668,112.545633 70.1570964,98.425381 C71.6940409,77.2450024 60.209324,58.877355 62.8133815,52.8347268 C65.417439,46.7920986 62.9951733,27.4207343 53.0057778,24.2634505" id="Path-3-Copy" fill="#F8F8F8"></path>
                                <ellipse id="Oval-2-Copy" fill="#352C36" cx="46.0748031" cy="42.9130435" rx="1.11023622" ry="1.11462451"></ellipse>
                                <ellipse id="Oval-2-Copy-2" fill="#352C36" cx="51.0708661" cy="42.9130435" rx="1.11023622" ry="1.11462451"></ellipse>
                                <g id="Group-3-Copy" stroke-width="1" fill="none" transform="translate(16.653543, 0.000000)">
                                    <polygon id="Path-23" fill="#91649A" points="13.3638481 27.2613585 11.3019519 23.2494818 8.40724153 18.6136211 23.0252493 13.1041511 25.3044899 18.3821437 27.820438 21.9670988 19.8048612 24.4130371"></polygon>
                                    <ellipse id="Oval-3-Copy" fill="#91649A" cx="18.3188976" cy="9.19565217" rx="8.88188976" ry="8.91699605"></ellipse>
                                    <ellipse id="Oval-3" fill="#91649A" cx="8.0492126" cy="13.6541502" rx="8.0492126" ry="8.08102767"></ellipse>
                                    <path d="M7.66958507,8.32612824 C12.1150424,8.32612824 16.0984252,18.1171785 16.0984252,13.6541502 C16.0984252,9.19112185 12.49467,5.57312253 8.0492126,5.57312253 C3.60375523,5.57312253 3.2241277,8.32612824 7.66958507,8.32612824 Z" id="Oval-3" fill="#805B87"></path>
                                    <g id="Group-11" transform="translate(11.102362, 20.063241)" fill="#805B87">
                                        <path d="M3.01804405,9.18638908 C5.84732684,8.52635084 7.07943523,7.23070992 10.5916455,6.06358565 C14.1038557,4.89646138 15.8028051,5.2651518 17.4126235,4.40300148 C19.0328169,3.53529475 18.2003253,2.88767225 17.997271,2.16941739 C17.7520521,1.30201578 17.5547911,0.31499259 16.4017591,0.351320677 C14.2939549,0.417730359 0.360082885,4.19569458 0.360082885,6.60884761 C0.360082885,7.07857921 0.968194346,7.71909497 1.34005155,8.16520431 C1.92328907,8.86490221 1.81660368,9.46667092 3.01804405,9.18638908 Z" id="Path-9"></path>
                                    </g>
                                </g>
                            </g>
                        </g>
                    </g>
                </g>
            </g>
        </g>
    </g>
</svg>