<?xml version="1.0" encoding="UTF-8"?>
<svg width="343px" height="397px" viewBox="0 0 343 397" version="1.1" xmlns="http://www.w3.org/2000/svg" xmlns:xlink="http://www.w3.org/1999/xlink">
    <!-- Generator: Sketch 47.1 (45422) - http://www.bohemiancoding.com/sketch -->
    <title>Group 3</title>
    <desc>Created with Sketch.</desc>
    <defs>
        <linearGradient x1="0%" y1="50%" x2="100%" y2="50%" id="linearGradient-1">
            <stop stop-color="#000000" stop-opacity="0.135756341" offset="0%"></stop>
            <stop stop-color="#000000" stop-opacity="0" offset="100%"></stop>
        </linearGradient>
    </defs>
    <g id="Screens" stroke="none" stroke-width="1" fill="none" fill-rule="evenodd">
        <g id="t3-/-6" transform="translate(-533.000000, -372.000000)">
            <g id="Group-3" transform="translate(704.000000, 570.500000) scale(-1, 1) translate(-704.000000, -570.500000) translate(532.000000, 372.000000)">
                <path d="M166.001084,98.0587774 C158.615327,129.273411 156.153408,150.316102 158.615327,161.186852 C162.308206,177.492976 163.137757,179.432984 167.107152,169.575731 C171.076548,159.718479 176.912533,103.298635 173.615876,99.8838695 C171.418104,97.6073591 168.87984,96.9989951 166.001084,98.0587774 Z" id="Path-40" fill="#E0A987"></path>
                <path d="M167.684906,85.8473558 C161.514646,94.2054158 158.429516,103.248152 158.429516,112.975564 C158.429516,127.566683 144.459504,170.474359 173.670912,162.943478 C193.145184,157.92289 198.047483,142.920665 188.377808,117.936803 L164.01613,102.902203 L167.684906,85.8473558 Z" id="Path-36" fill="#DFDFDF"></path>
                <rect id="Rectangle-10-Copy-5" fill="url(#linearGradient-1)" x="0.305288468" y="383.711666" width="165.191124" height="10.4057401" rx="5.20287005"></rect>
                <rect id="Rectangle-10-Copy-6" fill="url(#linearGradient-1)" x="100.460537" y="386.313101" width="243.234175" height="10.4057401" rx="5.20287005"></rect>
                <g id="Group-4" transform="translate(0.305288, 227.625565)">
                    <g id="Group-2" transform="translate(0.000000, 120.966729)">
                        <path d="M16.1469316,30.8232476 C32.3299353,29.7118271 40.8903273,28.9709836 41.8281078,28.6007171 C42.7658883,28.2304507 42.7595205,18.9618309 41.8090043,0.79485775 L59.2565672,0.772958603 C58.8571019,19.2120403 58.3830863,29.354141 57.8345205,31.1992606 C57.2859546,33.0443802 50.3693964,35.5488039 37.0848458,38.7125318 L9.44439484,35.6592316 L16.1469316,30.8232476 Z" id="Path-46" fill="#E0A987"></path>
                        <path d="M16.4204762,30.4589755 C4.13127639,30.7018013 -1.25993077,32.3323725 0.246854686,35.3506892 C2.50703286,39.8781642 26.9365335,41.3980006 37.92183,40.9026597 C48.9071264,40.4073188 59.338353,40.4073188 59.5370825,34.9176367 C59.6695689,31.2578486 59.0753576,29.6067123 57.7544486,29.9642278 C36.7270796,36.7949885 23.1958694,37.5076466 17.160818,32.1022021" id="Path-45" fill="#AD77B9"></path>
                    </g>
                    <path d="M219.362004,0.88323593 C225.019435,33.012465 218.908333,50.4099189 201.0287,53.0755977 C174.209249,57.0741158 109.367774,59.9572317 70.6809905,46.1043331 C31.9942067,32.2514345 41.252295,22.6198856 75.4799592,14.0103738 C109.707623,5.40086207 156.235835,0.396490002 175.38316,2.31234289 C188.148043,3.58957815 202.807658,3.11320916 219.362004,0.88323593 Z" id="Path-42" fill="#352C36"></path>
                    <path d="M47.7610871,26.4023206 C42.1224679,43.5920268 39.0963456,64.6717146 38.68272,89.6413841 C38.1247465,123.325031 40.6549844,140.455471 47.7610871,139.84468 C54.8671899,139.233888 59.7071026,141.086313 61.945825,133.577268 C66.8118759,117.255728 68.1417339,92.0068696 68.2726341,80.640037 C68.3568866,73.3239064 72.5031683,56.9866654 69.9449878,45.5251129 C69.8444556,45.0746932 69.7305736,44.6234002 69.6042647,44.1721477 C66.5164692,33.1406554 56.0020509,22.1333958 51.5450475,24.5024958 C46.0138759,27.442565 44.7525557,28.07584 47.7610871,26.4023206 Z" id="Path-43" fill="#352C36"></path>
                </g>
                <path d="M167.047004,71.7648526 C167.180407,81.5725064 166.694103,86.9356309 165.588091,87.8542261 C164.482079,88.7728214 173.383282,86.263541 192.291698,80.3263852 C185.241643,68.7797806 182.040335,57.969611 182.687774,47.8958764 C183.335213,37.8221418 182.215789,30.5282998 179.3295,26.0143502" id="Path-30" fill="#C58059"></path>
                <path d="M166.103248,87.1098476 C162.056346,105.82452 164.448617,112.75626 173.280061,107.90507 C186.527227,100.628285 192.626495,81.6310109 192.186646,79.446661 C191.893413,77.9904278 189.710524,74.9211226 185.637977,70.2387456 L166.103248,87.1098476 Z" id="Path-35" fill="#C58059"></path>
                <path d="M137.867134,23.6888949 C131.646984,31.4676033 128.302611,36.8087952 127.834014,39.7124707 C127.131119,44.067984 132.971245,58.8929812 134.659006,63.800247 C136.346767,68.7075128 145.874453,80.9094508 153.204067,80.8233156 C160.53368,80.7371805 166.580205,78.6650613 171.233129,70.2165031 C175.886052,61.767945 180.59667,60.5874228 181.922013,56.4218774 C183.247357,52.2563321 187.51186,25.5367376 177.69489,19.9046364 C167.877921,14.2725352 149.228848,9.10036314 145.571355,13.1535908 C143.133026,15.8557426 140.564952,19.3675106 137.867134,23.6888949 Z" id="Path-29" fill="#E0A987"></path>
                <path d="M137.867134,23.6888949 C131.646984,31.4676033 128.302611,36.8087952 127.834014,39.7124707 C127.131119,44.067984 128.619904,45.9972816 130.307666,50.9045475 C131.995427,55.8118133 148.551604,35.5960299 155.881218,35.5098948 C163.210832,35.4237596 158.702001,52.2072558 163.354925,43.7586976 C168.007848,35.3101395 180.59667,60.5874228 181.922013,56.4218774 C183.247357,52.2563321 187.51186,25.5367376 177.69489,19.9046364 C167.877921,14.2725352 149.228848,9.10036314 145.571355,13.1535908 C143.133026,15.8557426 140.564952,19.3675106 137.867134,23.6888949 Z" id="Path-29" fill="#C58059"></path>
                <path d="M153.542243,3.04639719 C163.638004,-0.609073069 172.850544,1.47639943 181.179861,9.30281469 C193.673837,21.0424376 196.690727,34.9115369 194.233316,38.6686353 C191.775905,42.4257337 182.445498,57.6584314 178.919944,58.3729716 C175.394391,59.0875118 164.090092,52.594835 166.9954,48.0215683 C169.900708,43.4483015 166.593078,36.3720487 163.686199,39.6231018 C160.77932,42.8741548 161.896705,45.9890053 159.700699,41.5435595 C157.504693,37.0981137 160.25645,14.5576085 162.152286,13.4344603 C163.416177,12.6856948 158.894444,12.3984502 148.587085,12.5727266 L153.542243,3.04639719 Z" id="Path-32" fill="#91649A"></path>
                <path d="M165.109362,10.695802 C165.823553,18.7244258 160.516188,26.9054919 149.187269,35.2390002 C132.19389,47.7392626 117.274458,55.6400655 117.370324,36.046263 C117.46619,16.4524604 143.841314,-6.8806294 167.759028,1.90758629 C183.70417,7.76639675 182.820948,10.695802 165.109362,10.695802 Z" id="Path-31" fill="#91649A"></path>
                <path d="M193.776131,38.1969349 C201.786002,36.3397959 211.51097,39.9155006 222.951034,48.9240492 C240.11113,62.4368721 235.454407,85.9401246 234.758802,99.8270409 C234.295065,109.084985 235.963605,116.02607 239.764423,120.650295 C214.773013,105.915142 201.150828,94.584804 198.89787,86.6592822 C195.518431,74.7709996 200.149412,56.627744 194.722593,51.1839457 C189.295774,45.7401475 189.586066,40.1577758 191.349728,39.1773554" id="Path-33" fill="#91649A"></path>
                <path d="M164.67418,169.517499 C159.883266,164.781875 150.434044,163.03529 136.326514,164.277745 C115.16522,166.141428 100.601659,174.839513 119.863534,175.817879 C139.125409,176.796245 161.70874,175.824622 163.19146,173.305548 C164.17994,171.626166 164.67418,170.363483 164.67418,169.517499 Z" id="Path-41" fill="#E0A987"></path>
                <path d="M188.734137,71.5394631 C215.189558,91.73211 231.180656,108.833554 236.70743,122.843794 C244.99759,143.859154 239.222522,171.710439 242.605588,191.857826 C244.860965,205.289417 249.749025,217.953707 257.269769,229.850694 C219.347117,234.979012 198.168906,234.57252 193.735136,228.631217 C187.08448,219.719263 193.455963,185.801047 191.952237,178.664377 C190.448511,171.527708 180.456666,165.975978 170.436904,165.468391 C160.417141,164.960804 157.097524,160.033406 163.767214,128.179799" id="Path-34" fill="#DFDFDF"></path>
                <path d="M68.7132113,124.016627 L88.1247556,183.559682 L88.1247556,183.559682 C88.4016718,184.409096 89.2083638,184.971827 90.1011504,184.938373 L130.863723,183.410923 L130.863723,183.410923 C131.967518,183.369562 132.82879,182.441229 132.787429,181.337435 C132.781246,181.172419 132.754649,181.008805 132.708248,180.850328 L114.498297,118.657125 L114.498297,118.657125 C114.227911,117.733662 113.338257,117.13364 112.380758,117.22896 L70.4165911,121.406558 L70.4165911,121.406558 C69.3174547,121.515979 68.5151316,122.495708 68.6245524,123.594845 C68.6388258,123.738222 68.6685513,123.879637 68.7132113,124.016627 Z" id="Path-47" fill="#C6C6C6"></path>
                <path d="M212.380024,133.696258 C209.405191,173.818192 204.012693,197.225342 196.202531,203.917709 C184.487288,213.956259 192.920016,144.61464 196.62084,130.813902 C200.321664,117.013164 209.405191,115.831701 210.892607,117.81694 C211.884218,119.140432 212.380024,124.433538 212.380024,133.696258 Z" id="Path-37" fill="#E0A987"></path>
                <path d="M120.696654,186.002604 C152.950232,186.234806 176.316473,189.019499 190.795378,194.356683 C212.513736,202.362459 192.695918,208.739942 178.743932,205.605217 C164.791947,202.470493 120.210932,197.635741 118.042467,192.511457 C116.596823,189.095267 117.481552,186.925649 120.696654,186.002604 Z" id="Path-38" fill="#E0A987"></path>
                <path d="M79.3730782,362.098 C78.1373794,364.073788 78.0192467,366.039992 79.0186803,367.996613 C80.5178306,370.931545 98.7781269,369.668269 99.635371,368.196696 C100.492615,366.725123 100.332432,361.761204 99.9839014,361.624491 C99.7515478,361.533349 92.8812734,361.691185 79.3730782,362.098 Z" id="Path-44" fill="#352C36"></path>
                <g id="Group-4" transform="translate(38.026096, 228.926282)">
                    <g id="Group-2" transform="translate(0.000000, 120.966729)">
                        <path d="M16.1469316,30.8232476 C32.3299353,29.7118271 40.8903273,28.9709836 41.8281078,28.6007171 C42.7658883,28.2304507 42.7595205,18.9618309 41.8090043,0.79485775 L59.2565672,0.772958603 C58.8571019,19.2120403 58.3830863,29.354141 57.8345205,31.1992606 C57.2859546,33.0443802 50.3693964,35.5488039 37.0848458,38.7125318 L9.44439484,35.6592316 L16.1469316,30.8232476 Z" id="Path-46" fill="#E0A987"></path>
                        <path d="M16.4204762,30.4589755 C4.13127639,30.7018013 -1.25993077,32.3323725 0.246854686,35.3506892 C2.50703286,39.8781642 26.9365335,41.3980006 37.92183,40.9026597 C48.9071264,40.4073188 59.338353,40.4073188 59.5370825,34.9176367 C59.6695689,31.2578486 59.0753576,29.6067123 57.7544486,29.9642278 C36.7270796,36.7949885 23.1958694,37.5076466 17.160818,32.1022021" id="Path-45" fill="#AD77B9"></path>
                    </g>
                    <path d="M219.362004,0.88323593 C225.019435,33.012465 218.908333,50.4099189 201.0287,53.0755977 C174.209249,57.0741158 109.367774,59.9572317 70.6809905,46.1043331 C31.9942067,32.2514345 41.252295,22.6198856 75.4799592,14.0103738 C109.707623,5.40086207 156.235835,0.396490002 175.38316,2.31234289 C188.148043,3.58957815 202.807658,3.11320916 219.362004,0.88323593 Z" id="Path-42" fill="#352C36"></path>
                    <path d="M47.7610871,26.4023206 C42.1224679,43.5920268 39.0963456,64.6717146 38.68272,89.6413841 C38.1247465,123.325031 40.6549844,140.455471 47.7610871,139.84468 C54.8671899,139.233888 59.7071026,141.086313 61.945825,133.577268 C66.8118759,117.255728 68.1417339,92.0068696 68.2726341,80.640037 C68.3568866,73.3239064 72.5031683,56.9866654 69.9449878,45.5251129 C69.8444556,45.0746932 69.7305736,44.6234002 69.6042647,44.1721477 C66.5164692,33.1406554 56.0020509,22.1333958 51.5450475,24.5024958 C46.0138759,27.442565 44.7525557,28.07584 47.7610871,26.4023206 Z" id="Path-43" fill="#352C36"></path>
                </g>
                <path d="M155.792615,286.636042 C161.200552,304.755176 167.523432,322.967124 174.761255,341.271885 C185.61799,368.729026 196.679539,394.538973 202.751056,392.800919 C208.822573,391.062866 188.837409,342.992806 179.574409,319.685436 C170.311408,296.378067 164.630682,278.942298 159.029309,282.78917 C155.29506,285.353752 154.216162,286.636042 155.792615,286.636042 Z" id="Path-49" fill="#352C36"></path>
                <path d="M278.060061,286.636042 C283.467998,304.755176 289.790878,322.967124 297.028702,341.271885 C307.885436,368.729026 318.946985,394.538973 325.018502,392.800919 C331.090019,391.062866 311.104856,342.992806 301.841855,319.685436 C292.578854,296.378067 286.898128,278.942298 281.296755,282.78917 C277.562506,285.353752 276.483608,286.636042 278.060061,286.636042 Z" id="Path-49-Copy" fill="#352C36"></path>
                <path d="M152.448986,286.636042 C147.041049,304.755176 140.718169,322.967124 133.480346,341.271885 C122.623611,368.729026 111.562062,394.538973 105.490545,392.800919 C99.4190285,391.062866 119.404192,342.992806 128.667193,319.685436 C137.930193,296.378067 143.610919,278.942298 149.212292,282.78917 C152.946541,285.353752 154.025439,286.636042 152.448986,286.636042 Z" id="Path-49" fill="#352C36"></path>
                <path d="M274.716432,286.636042 C269.308495,304.755176 262.985615,322.967124 255.747792,341.271885 C244.891057,368.729026 233.829508,394.538973 227.757991,392.800919 C221.686475,391.062866 241.671638,342.992806 250.934639,319.685436 C260.19764,296.378067 265.878365,278.942298 271.479738,282.78917 C275.213988,285.353752 276.292886,286.636042 274.716432,286.636042 Z" id="Path-49-Copy-2" fill="#352C36"></path>
                <rect id="Rectangle-11" fill="#805B87" x="117.369865" y="282.2557" width="189.904757" height="9.10502258"></rect>
                <rect id="Rectangle-11" fill="#91649A" x="117.369865" y="282.2557" width="87.1480733" height="9.10502258"></rect>
                <g id="Group-14" transform="translate(99.159819, 167.792559)" fill="#E0A987">
                    <path d="M20.6100865,24.2792113 C18.5482952,25.7543742 16.0467308,25.6212658 13.1053934,23.8798862 C8.69338733,21.2678169 -2.63166046,3.04796862 1.36357245,0.95537864 C5.35880535,-1.13721134 13.8802505,7.34933748 15.1690353,11.8117053 C16.4578201,16.2740731 21.9151298,17.2321359 21.5915457,19.9048773 C21.3758229,21.686705 21.0486699,23.1448163 20.6100865,24.2792113 Z" id="Path-39"></path>
                    <path d="M18.3087011,17.0125425 L16.9390964,16.1033223 L22.5285008,15.9332227 C22.4214953,17.4523089 21.5749125,18.7285448 19.9887522,19.7619305 C18.4025919,20.7953162 16.3610711,20.8255257 13.86419,19.8525589 L13.86419,17.5081605" id="Path-48"></path>
                </g>
            </g>
        </g>
    </g>
</svg>