<?xml version="1.0" encoding="UTF-8"?>
<svg width="208px" height="30px" viewBox="0 0 208 30" version="1.1" xmlns="http://www.w3.org/2000/svg" xmlns:xlink="http://www.w3.org/1999/xlink">
    <!-- Generator: sketchtool 47.1 (45422) - http://www.bohemiancoding.com/sketch -->
    <title>668198AC-2E8A-44DE-9565-757E65B4961C</title>
    <desc>Created with sketchtool.</desc>
    <defs></defs>
    <g id="Symbols" stroke="none" stroke-width="1" fill="none" fill-rule="evenodd">
        <g id="logo-/-1">
            <g id="Group-27" transform="translate(0.000000, 5.000000)">
                <path d="M19.6999139,5.92469359 C20.6178842,5.0601529 21.431499,4.41175711 22.6519822,3.97948677 C23.8724654,3.54721643 25.1190086,3.3310845 26.3916492,3.3310845 C27.7060158,3.3310845 28.8169518,3.49061045 29.7244906,3.80966713 C30.6320294,4.12872381 31.3674377,4.62273965 31.9307377,5.29172946 C32.4940376,5.96071928 32.9060749,6.804663 33.1668619,7.82358595 C33.4276489,8.8425089 33.5580405,10.0518185 33.5580405,11.451551 L33.5580405,19.201502 L28.8638977,19.201502 L28.8638977,17.5650582 L28.7700149,17.5650582 C28.3736186,18.2031715 27.7738175,18.6971874 26.9705935,19.0471205 C26.1673695,19.3970537 25.2963539,19.5720176 24.3575207,19.5720176 C23.7316319,19.5720176 23.0848898,19.4896816 22.417275,19.3250072 C21.7496603,19.1603328 21.1394278,18.8927409 20.5865594,18.5222234 C20.0336909,18.151706 19.5799283,17.6576902 19.225258,17.0401611 C18.8705876,16.422632 18.6932551,15.6610243 18.6932551,14.755315 C18.6932551,13.6437627 19.0009792,12.748359 19.6164365,12.069077 C20.2318939,11.3897951 21.0246745,10.8649032 21.9948022,10.4943858 C22.9649299,10.1238684 24.0445719,9.87686043 25.2337607,9.75335462 C26.4229495,9.62984881 27.5808264,9.56809683 28.7074263,9.56809683 L28.7074263,9.32108644 C28.7074263,8.55946726 28.4362119,7.99855345 27.8937749,7.63832816 C27.3513379,7.27810288 26.6837332,7.09799294 25.8909407,7.09799294 C25.160737,7.09799294 24.4566227,7.25237289 23.7785764,7.56113742 C23.1005302,7.86990195 22.5215917,8.24041382 22.0417436,8.67268417 L19.6999139,5.92469359 Z M28.8976849,12.2993889 L28.2301364,12.2993889 C27.6579491,12.2993889 27.0804725,12.3255249 26.4976891,12.3777975 C25.9149058,12.4300702 25.3957066,12.5293868 24.940076,12.6757502 C24.4844454,12.8221137 24.1082909,13.0364284 23.8116012,13.3187008 C23.5149115,13.6009732 23.3665689,13.9721035 23.3665689,14.432103 C23.3665689,14.7248299 23.4354423,14.9757349 23.5731911,15.1848256 C23.7109398,15.3939162 23.8857722,15.5611862 24.0976934,15.6866406 C24.3096146,15.812095 24.5533204,15.9009572 24.828818,15.9532299 C25.1043155,16.0055026 25.3692131,16.0316385 25.6235185,16.0316385 C26.6831246,16.0316385 27.4937111,15.7441432 28.0553023,15.1691438 C28.6168935,14.5941445 28.8976849,13.8152935 28.8976849,12.8325674 L28.8976849,12.2993889 Z" id="Combined-Shape" fill="#CE7D9F"></path>
                <polygon id="Path-Copy-11" fill="#CE7D9F" points="11.8569325 19.2087376 6.23045245 19.2087376 0 3.58974359 5.75363211 3.58974359 9.09137449 13.7201353 9.18673856 13.7201353 12.5244809 3.58974359 18.0873849 3.58974359"></polygon>
                <path d="M47.0074743,8.62617642 C46.7107846,8.24981324 46.3081403,7.94663633 45.7995294,7.71663661 C45.2909185,7.48663689 44.7717193,7.37163875 44.2419163,7.37163875 C43.6909211,7.37163875 43.1929138,7.4814097 42.7478792,7.70095489 C42.3028447,7.92050008 41.9213922,8.21322261 41.6035104,8.57913126 C41.2856286,8.94503991 41.0366249,9.36844214 40.8564919,9.84935065 C40.6763588,10.3302592 40.5862937,10.8425236 40.5862937,11.3861593 C40.5862937,11.929795 40.6710609,12.4420594 40.8405979,12.9229679 C41.0101348,13.4038765 41.2591385,13.8272787 41.5876164,14.1931873 C41.9160943,14.559096 42.3081426,14.8465913 42.7637732,15.055682 C43.2194038,15.2647726 43.7333051,15.3693164 44.3054923,15.3693164 C44.8352954,15.3693164 45.3597925,15.2699998 45.8789995,15.0713637 C46.3982064,14.8727276 46.8167445,14.5852322 47.1346264,14.2088691 L50.0273364,17.6902111 C49.3703807,18.3174831 48.5227085,18.8088387 47.4842946,19.1642929 C46.4458807,19.519747 45.3439069,19.6974714 44.1783402,19.6974714 C42.9280051,19.6974714 41.7624559,19.5092926 40.6816577,19.1329294 C39.6008596,18.7565662 38.6631223,18.2077115 37.8684177,17.4863487 C37.0737132,16.7649859 36.448555,15.8920455 35.9929244,14.8675013 C35.5372938,13.8429571 35.3094819,12.6825214 35.3094819,11.3861593 C35.3094819,10.1107063 35.5372938,8.96072492 35.9929244,7.9361807 C36.448555,6.91163648 37.0737132,6.03869608 37.8684177,5.31733332 C38.6631223,4.59597055 39.6008596,4.04188862 40.6816577,3.6550709 C41.7624559,3.26825319 42.9174092,3.07484723 44.1465522,3.07484723 C44.7187395,3.07484723 45.2856202,3.12711911 45.8472114,3.23166444 C46.4088026,3.33620977 46.9491936,3.47734384 47.4684006,3.6550709 C47.9876076,3.83279796 48.4644231,4.05233986 48.8988616,4.31370318 C49.3333001,4.5750665 49.7094546,4.86256184 50.0273364,5.17619783 L47.0074743,8.62617642 Z" id="Path-Copy-20" fill="#CE7D9F"></path>
                <path d="M74.8729182,7.1976024 L74.8729182,13.4128936 C74.8729182,14.1447109 75.0159629,14.6935656 75.3020565,15.0594743 C75.5881502,15.4253829 76.1020514,15.6083345 76.8437756,15.6083345 C77.0980811,15.6083345 77.3682766,15.5874258 77.6543702,15.5456076 C77.9404638,15.5037895 78.1788716,15.4410633 78.3696007,15.357427 L78.4331768,19.12104 C78.0729107,19.2464944 77.6172869,19.3562653 77.0662918,19.4503561 C76.5152966,19.5444469 75.9643097,19.5914916 75.4133146,19.5914916 C74.3537085,19.5914916 73.4636528,19.4608119 72.7431207,19.1994486 C72.0225886,18.9380853 71.4451119,18.5617277 71.0106735,18.0703647 C70.576235,17.5790017 70.2636559,16.9935566 70.0729268,16.314012 C69.8821977,15.6344673 69.7868346,14.8765251 69.7868346,14.0401624 L69.7868346,7.1976024 L67.2437928,7.1976024 L67.2437928,3.33989906 L69.7550466,3.33989906 L69.7550466,0.256237269 L74.8729182,0.256237269 L74.8729182,3.33989906 L78.5921169,3.33989906 L78.5921169,7.1976024 L74.8729182,7.1976024 Z" id="Path-Copy-24" fill="#CE7D9F"></path>
                <polygon id="Path-Copy-25" fill="#CE7D9F" points="80.4848485 19.0704588 80.4848485 3.3310845 85.6980842 3.3310845 85.6980842 19.0704588"></polygon>
                <path d="M104.813967,11.32618 C104.813967,12.5624367 104.580857,13.6821443 104.114631,14.6853362 C103.648404,15.6885281 103.01265,16.5397084 102.207349,17.2389028 C101.402049,17.9380972 100.469609,18.480218 99.4100033,18.8652816 C98.3503973,19.2503451 97.2166358,19.442874 96.0086849,19.442874 C94.8219261,19.442874 93.6934626,19.2503451 92.6232605,18.8652816 C91.5530583,18.480218 90.620619,17.9380972 89.8259145,17.2389028 C89.0312099,16.5397084 88.4007538,15.6885281 87.9345271,14.6853362 C87.4683005,13.6821443 87.2351906,12.5624367 87.2351906,11.32618 C87.2351906,10.0899234 87.4683005,8.97528239 87.9345271,7.98222374 C88.4007538,6.98916508 89.0312099,6.14811781 89.8259145,5.4590567 C90.620619,4.76999559 91.5530583,4.24307441 92.6232605,3.87827735 C93.6934626,3.51348029 94.8219261,3.3310845 96.0086849,3.3310845 C97.2166358,3.3310845 98.3503973,3.51348029 99.4100033,3.87827735 C100.469609,4.24307441 101.402049,4.76999559 102.207349,5.4590567 C103.01265,6.14811781 103.648404,6.98916508 104.114631,7.98222374 C104.580857,8.97528239 104.813967,10.0899234 104.813967,11.32618 Z M99.9297348,11.4140379 C99.9297348,10.9122203 99.8449676,10.4208647 99.6754307,9.93995615 C99.5058937,9.45904764 99.262188,9.03564541 98.9443061,8.66973676 C98.6264243,8.30382811 98.234376,8.00587839 97.7681493,7.77587867 C97.3019226,7.54587894 96.7615317,7.43088081 96.1469601,7.43088081 C95.5323886,7.43088081 94.9919976,7.54587894 94.525771,7.77587867 C94.0595443,8.00587839 93.6727939,8.30382811 93.3655082,8.66973676 C93.0582224,9.03564541 92.8251126,9.45904764 92.6661717,9.93995615 C92.5072307,10.4208647 92.4277615,10.9122203 92.4277615,11.4140379 C92.4277615,11.9158555 92.5072307,12.4072112 92.6661717,12.8881197 C92.8251126,13.3690282 93.0635204,13.8028848 93.3814022,14.1897025 C93.699284,14.5765202 94.0913323,14.8849243 94.557559,15.114924 C95.0237857,15.3449238 95.5641767,15.4599219 96.1787482,15.4599219 C96.7933197,15.4599219 97.3337107,15.3449238 97.7999373,15.114924 C98.266164,14.8849243 98.6582123,14.5765202 98.9760942,14.1897025 C99.293976,13.8028848 99.5323838,13.3690282 99.6913247,12.8881197 C99.8502656,12.4072112 99.9297348,11.9158555 99.9297348,11.4140379 Z" id="Combined-Shape" fill="#CE7D9F"></path>
                <path d="M116.842386,19.1329294 L116.842386,10.6020733 C116.842386,10.1629829 116.805301,9.74480783 116.731128,9.34753558 C116.656956,8.95026333 116.535103,8.60004174 116.365566,8.29686028 C116.196029,7.99367883 115.957621,7.75322818 115.650335,7.57550112 C115.34305,7.39777406 114.956299,7.30891187 114.490073,7.30891187 C114.023846,7.30891187 113.615904,7.39777406 113.266234,7.57550112 C112.916564,7.75322818 112.625176,7.99890602 112.392063,8.312542 C112.15895,8.62617799 111.984117,8.98685396 111.867561,9.39458074 C111.751004,9.80230753 111.692727,10.2257098 111.692727,10.6648001 L111.692727,19.1329294 L106.447703,19.1329294 L106.447703,3.51393542 L111.501998,3.51393542 L111.501998,5.6780129 L111.565574,5.6780129 C111.756304,5.34346784 112.005307,5.014155 112.312593,4.69006448 C112.619879,4.36597396 112.980139,4.088933 113.393386,3.85893327 C113.806632,3.62893355 114.256958,3.44075478 114.744377,3.29439132 C115.231796,3.14802786 115.750995,3.07484723 116.30199,3.07484723 C117.361596,3.07484723 118.262248,3.263026 119.003972,3.63938918 C119.745696,4.01575237 120.344364,4.50188085 120.799995,5.09778922 C121.255626,5.6936976 121.584099,6.37845923 121.785424,7.15209466 C121.986749,7.92573009 122.08741,8.69935392 122.08741,9.47298935 L122.08741,19.1329294 L116.842386,19.1329294 Z" id="Path-Copy-28" fill="#CE7D9F"></path>
                <path d="M134.841471,8.18708824 C134.417629,7.78981599 133.919621,7.45527595 133.347434,7.1834581 C132.775247,6.91164025 132.17128,6.77573336 131.535517,6.77573336 C131.048098,6.77573336 130.597772,6.86982274 130.184526,7.05800433 C129.771279,7.24618592 129.564659,7.57027158 129.564659,8.03027103 C129.564659,8.46936141 129.792471,8.78299269 130.248102,8.97117428 C130.703732,9.15935587 131.440148,9.36844339 132.457369,9.59844312 C133.050749,9.72389751 133.649417,9.9016219 134.253393,10.1316216 C134.857368,10.3616213 135.403057,10.6647983 135.890476,11.0411614 C136.377895,11.4175246 136.769943,11.8775172 137.066633,12.4211529 C137.363322,12.9647886 137.511665,13.6129599 137.511665,14.3656863 C137.511665,15.3484124 137.310343,16.1795352 136.907693,16.8590799 C136.505042,17.5386245 135.980545,18.0874793 135.334185,18.5056606 C134.687826,18.9238419 133.962006,19.2270188 133.156706,19.4152004 C132.351405,19.603382 131.546117,19.6974714 130.740816,19.6974714 C129.448097,19.6974714 128.181887,19.493611 126.942147,19.0858842 C125.702408,18.6781575 124.669308,18.0770308 123.842815,17.2824863 L126.767313,14.2402325 C127.23354,14.7420501 127.805719,15.1602251 128.483867,15.4947702 C129.162014,15.8293152 129.882536,15.9965852 130.645452,15.9965852 C131.069295,15.9965852 131.487833,15.8972687 131.901079,15.6986325 C132.314325,15.4999964 132.520945,15.1497748 132.520945,14.6479572 C132.520945,14.1670487 132.266644,13.8115999 131.758033,13.5816002 C131.249422,13.3516005 130.454729,13.1111498 129.373931,12.8602411 C128.822936,12.7347867 128.271949,12.5675166 127.720954,12.358426 C127.169959,12.1493353 126.677249,11.8670672 126.242811,11.5116131 C125.808372,11.1561589 125.45341,10.7170752 125.177912,10.1943485 C124.902415,9.67162187 124.764668,9.0443593 124.764668,8.312542 C124.764668,7.37163405 124.96599,6.57187428 125.36864,5.91323871 C125.771291,5.25460314 126.29049,4.71620277 126.926253,4.29802146 C127.562017,3.87984014 128.266645,3.57143605 129.040157,3.37279993 C129.813669,3.1741638 130.581872,3.07484723 131.344789,3.07484723 C132.531547,3.07484723 133.691799,3.25779881 134.825577,3.62370746 C135.959356,3.98961611 136.918285,4.53847085 137.702393,5.27028815 L134.841471,8.18708824 Z" id="Path-Copy-29" fill="#CE7D9F"></path>
                <path d="M207.990396,11.6563359 L207.990396,12.2836047 C207.990396,12.4926954 207.9798,12.6913285 207.958608,12.8795101 L196.483132,12.8795101 C196.525516,13.3186005 196.657965,13.7158668 196.880482,14.0713209 C197.102999,14.426775 197.389089,14.7351791 197.738759,14.9965424 C198.088429,15.2579057 198.480477,15.4617661 198.914915,15.6081295 C199.349354,15.754493 199.79968,15.8276736 200.265906,15.8276736 C201.092399,15.8276736 201.791729,15.6760852 202.363916,15.3729037 C202.936103,15.0697223 203.402323,14.6776832 203.762589,14.1967747 L207.386423,16.4549425 C206.644699,17.5213048 205.664578,18.3419733 204.446031,18.9169726 C203.227484,19.4919719 201.812931,19.7794673 200.20233,19.7794673 C199.015571,19.7794673 197.892406,19.5965157 196.8328,19.2306071 C195.773194,18.8646984 194.846052,18.3315252 194.051348,17.6310715 C193.256643,16.9306178 192.631485,16.0681318 192.175855,15.0435876 C191.720224,14.0190434 191.492412,12.8481532 191.492412,11.5308821 C191.492412,10.2554291 191.714926,9.10022054 192.159961,8.06522179 C192.604995,7.03022304 193.208961,6.15205545 193.971878,5.43069268 C194.734794,4.70932992 195.635446,4.1500208 196.67386,3.75274855 C197.712274,3.3554763 198.835439,3.15684316 200.04339,3.15684316 C201.208957,3.15684316 202.279143,3.35024911 203.25398,3.73706683 C204.228818,4.12388454 205.065894,4.68319366 205.765234,5.41501096 C206.464574,6.14682826 207.010263,7.03545023 207.402317,8.08090351 C207.794372,9.1263568 207.990396,10.3181557 207.990396,11.6563359 Z M203.132627,9.72369189 C203.132627,8.90823833 202.873028,8.20779514 202.353821,7.6223413 C201.834614,7.03688746 201.055815,6.74416493 200.017401,6.74416493 C199.50879,6.74416493 199.04257,6.82257275 198.618728,6.97939074 C198.194886,7.13620873 197.824029,7.35052344 197.506147,7.6223413 C197.188265,7.89415915 196.933964,8.21301762 196.743235,8.57892627 C196.552506,8.94483492 196.446547,9.32641964 196.425354,9.72369189 L203.132627,9.72369189 Z" id="Combined-Shape" fill="#471A2D"></path>
                <path d="M51.6342248,5.92469359 C52.552195,5.0601529 53.3658098,4.41175711 54.586293,3.97948677 C55.8067762,3.54721643 57.0533195,3.3310845 58.3259601,3.3310845 C59.6403266,3.3310845 60.7512626,3.49061045 61.6588014,3.80966713 C62.5663402,4.12872381 63.3017486,4.62273965 63.8650485,5.29172946 C64.4283484,5.96071928 64.8403857,6.804663 65.1011728,7.82358595 C65.3619598,8.8425089 65.4923513,10.0518185 65.4923513,11.451551 L65.4923513,19.201502 L60.7982086,19.201502 L60.7982086,17.5650582 L60.7043257,17.5650582 C60.3079295,18.2031715 59.7081283,18.6971874 58.9049043,19.0471205 C58.1016803,19.3970537 57.2306648,19.5720176 56.2918316,19.5720176 C55.6659427,19.5720176 55.0192006,19.4896816 54.3515859,19.3250072 C53.6839711,19.1603328 53.0737387,18.8927409 52.5208702,18.5222234 C51.9680018,18.151706 51.5142392,17.6576902 51.1595688,17.0401611 C50.8048985,16.422632 50.627566,15.6610243 50.627566,14.755315 C50.627566,13.6437627 50.93529,12.748359 51.5507474,12.069077 C52.1662047,11.3897951 52.9589854,10.8649032 53.929113,10.4943858 C54.8992407,10.1238684 55.9788828,9.87686043 57.1680715,9.75335462 C58.3572603,9.62984881 59.5151373,9.56809683 60.6417372,9.56809683 L60.6417372,9.32108644 C60.6417372,8.55946726 60.3705227,7.99855345 59.8280857,7.63832816 C59.2856488,7.27810288 58.618044,7.09799294 57.8252515,7.09799294 C57.0950479,7.09799294 56.3909335,7.25237289 55.7128873,7.56113742 C55.0348411,7.86990195 54.4559026,8.24041382 53.9760545,8.67268417 L51.6342248,5.92469359 Z M60.5723672,12.2993889 L59.9048187,12.2993889 C59.3326314,12.2993889 58.7551548,12.3255249 58.1723715,12.3777975 C57.5895881,12.4300702 57.0703889,12.5293868 56.6147583,12.6757502 C56.1591277,12.8221137 55.7829732,13.0364284 55.4862835,13.3187008 C55.1895938,13.6009732 55.0412512,13.9721035 55.0412512,14.432103 C55.0412512,14.7248299 55.1101246,14.9757349 55.2478734,15.1848256 C55.3856222,15.3939162 55.5604545,15.5611862 55.7723757,15.6866406 C55.984297,15.812095 56.2280027,15.9009572 56.5035003,15.9532299 C56.7789978,16.0055026 57.0438954,16.0316385 57.2982008,16.0316385 C58.3578069,16.0316385 59.1683934,15.7441432 59.7299846,15.1691438 C60.2915758,14.5941445 60.5723672,13.8152935 60.5723672,12.8325674 L60.5723672,12.2993889 Z" id="Combined-Shape" fill="#CE7D9F"></path>
                <path d="M157.504444,8.62825227 C157.207754,8.25188908 156.80511,7.94871218 156.296499,7.71871246 C155.787888,7.48871273 155.268689,7.3737146 154.738886,7.3737146 C154.187891,7.3737146 153.689883,7.48348555 153.244849,7.70303074 C152.799814,7.92257593 152.418362,8.21529845 152.10048,8.5812071 C151.782598,8.94711575 151.533595,9.37051798 151.353462,9.8514265 C151.173329,10.332335 151.083263,10.8445994 151.083263,11.3882351 C151.083263,11.9318709 151.168031,12.4441353 151.337568,12.9250438 C151.507105,13.4059523 151.756108,13.8293545 152.084586,14.1952632 C152.413064,14.5611718 152.805112,14.8486672 153.260743,15.0577578 C153.716374,15.2668485 154.230275,15.3713922 154.802462,15.3713922 C155.332265,15.3713922 155.856762,15.2720757 156.375969,15.0734395 C156.895176,14.8748034 157.313714,14.5873081 157.631596,14.2109449 L160.524306,17.6922869 C159.86735,18.3195589 159.019678,18.8109146 157.981264,19.1663687 C156.94285,19.5218228 155.840877,19.6995472 154.67531,19.6995472 C153.424975,19.6995472 152.259426,19.5113684 151.178627,19.1350053 C150.097829,18.7586421 149.160092,18.2097873 148.365387,17.4884246 C147.570683,16.7670618 146.945525,15.8941214 146.489894,14.8695772 C146.034263,13.845033 145.806452,12.6845972 145.806452,11.3882351 C145.806452,10.1127821 146.034263,8.96280077 146.489894,7.93825655 C146.945525,6.91371233 147.570683,6.04077193 148.365387,5.31940916 C149.160092,4.5980464 150.097829,4.04396447 151.178627,3.65714675 C152.259426,3.27032903 153.414379,3.07692308 154.643522,3.07692308 C155.215709,3.07692308 155.78259,3.12919496 156.344181,3.23374029 C156.905772,3.33828561 157.446163,3.47941969 157.96537,3.65714675 C158.484577,3.83487381 158.961393,4.0544157 159.395831,4.31577903 C159.83027,4.57714235 160.206424,4.86463769 160.524306,5.17827367 L157.504444,8.62825227 Z" id="Path-Copy-36" fill="#471A2D"></path>
                <ellipse id="Oval-Copy" fill="#471A2D" cx="141.694177" cy="16.6649368" rx="2.5974026" ry="2.56237269"></ellipse>
                <path d="M162.099071,5.75045224 C163.017041,4.88591156 163.830656,4.23751577 165.051139,3.80524543 C166.271622,3.37297509 167.518166,3.15684316 168.790806,3.15684316 C170.105173,3.15684316 171.216109,3.3163691 172.123647,3.63542579 C173.031186,3.95448247 173.766595,4.44849831 174.329895,5.11748812 C174.893195,5.78647794 175.305232,6.63042166 175.566019,7.64934461 C175.826806,8.66826756 175.957197,9.87757717 175.957197,11.2773097 L175.957197,19.0272607 L171.263055,19.0272607 L171.263055,17.3908168 L171.169172,17.3908168 C170.772776,18.0289302 170.172974,18.522946 169.36975,18.8728792 C168.566526,19.2228123 167.695511,19.3977762 166.756678,19.3977762 C166.130789,19.3977762 165.484047,19.3154403 164.816432,19.1507659 C164.148817,18.9860914 163.538585,18.7184995 162.985716,18.3479821 C162.432848,17.9774647 161.979085,17.4834488 161.624415,16.8659198 C161.269745,16.2483907 161.092412,15.4867829 161.092412,14.5810737 C161.092412,13.4695214 161.400136,12.5741176 162.015593,11.8948357 C162.631051,11.2155537 163.423831,10.6906619 164.393959,10.3201444 C165.364087,9.94962701 166.443729,9.70261909 167.632918,9.57911328 C168.822106,9.45560747 169.979983,9.39385549 171.106583,9.39385549 L171.106583,9.1468451 C171.106583,8.38522592 170.835369,7.8243121 170.292932,7.46408682 C169.750495,7.10386153 169.08289,6.92375159 168.290098,6.92375159 C167.559894,6.92375159 166.85578,7.07813154 166.177733,7.38689607 C165.499687,7.6956606 164.920749,8.06617248 164.440901,8.49844282 L162.099071,5.75045224 Z M171.037213,12.1251476 L170.369665,12.1251476 C169.797477,12.1251476 169.220001,12.1512835 168.637218,12.2035562 C168.054434,12.2558288 167.535235,12.3551454 167.079604,12.5015089 C166.623974,12.6478723 166.247819,12.862187 165.95113,13.1444594 C165.65444,13.4267318 165.506097,13.7978622 165.506097,14.2578616 C165.506097,14.5505885 165.574971,14.8014936 165.712719,15.0105842 C165.850468,15.2196749 166.025301,15.3869449 166.237222,15.5123993 C166.449143,15.6378537 166.692849,15.7267159 166.968346,15.7789885 C167.243844,15.8312612 167.508741,15.8573971 167.763047,15.8573971 C168.822653,15.8573971 169.633239,15.5699018 170.194831,14.9949025 C170.756422,14.4199032 171.037213,13.6410522 171.037213,12.6583261 L171.037213,12.1251476 Z" id="Combined-Shape" fill="#471A2D"></path>
                <path d="M189.424798,4.42224529 C189.234069,4.35951809 189.336101,4.27588277 189.081796,4.23406464 C188.827491,4.19224651 188.573189,4.17133775 188.318883,4.17133775 C187.831465,4.17133775 187.439416,4.25497276 187.142727,4.42224529 C186.846037,4.58951781 186.612927,4.8142869 186.44339,5.09655928 C186.273853,5.37883167 186.157298,5.69769014 186.093722,6.05314426 C186.030146,6.40859838 185.998358,6.76404716 185.998358,7.11950128 L185.998358,8.92341165 L189.526828,8.92341165 L189.526828,12.801614 L185.998358,12.801614 L185.998358,19.150239 L180.785122,19.150239 L180.785122,12.801614 L177.892412,12.801614 L177.892412,8.92341165 L180.785122,8.92341165 L180.785122,7.18222816 C180.785122,6.22041114 180.891081,5.30565324 181.103002,4.43792701 C181.314924,3.57020078 181.680482,2.80703133 182.199689,2.14839576 C182.718896,1.48976019 183.418226,0.967041388 184.297699,0.580223672 C185.177172,0.193405957 186.273847,0 187.587759,0 C188.032794,0 188.472523,0.0261359401 188.906962,0.0784086044 C189.3414,0.130681269 189.064532,0.109602066 189.424798,0.214147394 L189.424798,4.42224529 Z" id="Path-Copy-33" fill="#471A2D"></path>
            </g>
        </g>
    </g>
</svg>